<?xml version="1.0" standalone="no"?>
<!DOCTYPE svg PUBLIC "-//W3C//DTD SVG 20010904//EN"
 "http://www.w3.org/TR/2001/REC-SVG-20010904/DTD/svg10.dtd">
<svg version="1.0" xmlns="http://www.w3.org/2000/svg"
 width="800.000000pt" height="800.000000pt" viewBox="0 0 640.000000 480.000000"
 preserveAspectRatio="xMidYMid meet">

<g transform="translate(0.000000,480.000000) scale(0.100000,-0.100000)"
fill="white" stroke="#053281" background-color="white">
<path d="M3005 4604 c-536 -44 -1023 -265 -1395 -634 -341 -339 -551 -744
-631 -1220 -30 -179 -32 -507 -5 -675 77 -475 276 -877 601 -1214 310 -321
725 -547 1158 -630 239 -46 539 -52 767 -16 896 142 1618 817 1814 1697 40
182 51 281 51 488 0 364 -68 659 -229 987 -170 348 -493 698 -831 902 -247
149 -539 253 -828 296 -108 16 -377 26 -472 19z m384 -34 c945 -100 1721 -806
1911 -1739 29 -145 40 -260 40 -436 0 -465 -129 -870 -403 -1265 -87 -124
-282 -335 -382 -412 -16 -12 -36 -28 -43 -35 -23 -22 -133 -98 -207 -143 -768
-468 -1730 -426 -2447 107 -124 92 -305 266 -399 384 -192 241 -340 538 -413
827 -54 212 -60 271 -60 542 -1 281 10 367 74 594 226 803 909 1417 1730 1556
63 11 133 21 155 23 88 8 356 6 444 -3z"/>
<path d="M3172 4558 c-14 -14 -16 -38 -4 -38 4 0 13 5 19 11 20 20 35 0 18
-24 -19 -27 -19 -37 -1 -37 7 0 21 12 31 26 15 23 15 27 0 50 -17 26 -44 31
-63 12z"/>
<path d="M3128 4297 c-32 -78 -58 -148 -58 -155 0 -7 11 -12 24 -12 18 0 27 9
40 40 l16 40 59 0 c59 0 60 0 72 -35 7 -19 19 -37 26 -39 15 -6 43 3 42 13 0
3 -28 69 -63 146 -84 187 -84 187 -158 2z m106 -28 c-8 -13 -54 -11 -54 2 0 7
5 30 12 52 l12 40 18 -43 c10 -23 15 -46 12 -51z"/>
<path d="M2934 4383 c17 -120 19 -193 6 -208 -16 -19 -54 -19 -70 0 -10 12
-39 175 -40 223 0 6 -11 12 -25 12 -30 0 -30 0 -11 -131 16 -110 25 -133 66
-154 42 -22 74 -19 109 11 27 23 31 32 31 77 0 29 -5 89 -12 135 -10 78 -12
82 -36 82 -24 0 -24 -2 -18 -47z"/>
<path d="M3425 4270 c-15 -77 -26 -142 -24 -144 2 -2 13 -6 24 -8 18 -3 22 8
40 94 11 53 23 99 26 103 4 3 24 -45 44 -107 21 -62 40 -116 44 -120 3 -3 17
-8 30 -10 22 -3 24 2 53 141 16 79 28 144 26 146 -2 1 -13 5 -24 9 -20 6 -23
0 -39 -86 -28 -145 -27 -145 -71 -7 -39 120 -41 124 -70 127 l-30 3 -29 -141z"/>
<path d="M2504 4332 c-105 -49 -126 -175 -44 -253 61 -59 132 -63 204 -14 21
14 51 25 70 25 18 0 36 3 39 6 12 12 -12 42 -30 38 -16 -4 -18 3 -18 55 0 64
-16 96 -67 134 -37 28 -104 32 -154 9z m116 -47 c16 -9 37 -29 45 -46 20 -37
16 -85 -5 -81 -60 13 -109 13 -144 -2 -32 -13 -41 -14 -48 -4 -22 36 5 108 50
132 35 20 66 20 102 1z m-2 -161 c29 -8 28 -18 -3 -32 -33 -15 -60 -15 -87 -1
-21 11 -21 12 -3 25 20 15 55 18 93 8z"/>
<path d="M3915 4281 c-8 -15 -105 -260 -105 -268 0 -4 30 -20 65 -34 l65 -27
6 25 c4 13 5 25 3 26 -2 2 -20 10 -41 19 l-36 17 44 107 c24 58 44 112 44 119
0 14 -37 27 -45 16z"/>
<path d="M4243 4209 c-31 -20 -41 -38 -27 -52 5 -4 37 10 86 39 11 7 -2 34
-16 34 -6 0 -26 -10 -43 -21z"/>
<path d="M4105 4103 c-3 -54 -11 -106 -16 -117 -6 -10 -19 -33 -29 -51 -14
-24 -15 -36 -7 -44 19 -19 33 -12 62 33 21 34 50 57 117 97 80 48 88 55 72 66
-26 19 -34 17 -91 -22 -63 -42 -74 -43 -68 -7 14 90 15 115 4 128 -27 33 -37
15 -44 -83z"/>
<path d="M2149 4175 c-12 -12 -14 -27 -8 -68 4 -29 8 -63 8 -75 l1 -24 -47 28
c-27 15 -56 32 -65 38 -12 7 -25 6 -44 -3 -28 -12 -28 -12 68 -67 79 -45 101
-62 123 -100 27 -45 40 -51 58 -23 7 11 2 27 -17 57 -20 32 -28 63 -36 134 -5
51 -10 99 -10 106 0 16 -12 15 -31 -3z"/>
<path d="M2920 4014 c-359 -57 -651 -205 -906 -458 -143 -142 -232 -265 -314
-431 -68 -138 -110 -261 -142 -413 -19 -92 -23 -137 -22 -317 0 -180 3 -225
22 -315 73 -336 230 -625 462 -848 226 -218 480 -356 785 -428 162 -38 449
-45 621 -16 598 103 1079 509 1278 1081 63 182 81 297 81 531 0 175 -3 221
-23 315 -67 320 -214 597 -435 823 -236 241 -511 391 -848 462 -137 30 -419
37 -559 14z m398 -215 c526 -57 977 -373 1219 -853 40 -80 43 -90 29 -104 -9
-9 -17 -14 -18 -11 -2 2 -21 42 -43 89 -163 347 -486 637 -851 763 -181 63
-294 81 -504 81 -167 0 -197 -3 -304 -28 -465 -108 -824 -388 -1033 -806 -40
-81 -47 -90 -60 -77 -13 13 -10 24 26 96 79 158 161 271 296 407 327 330 784
493 1243 443z m29 -169 c460 -60 882 -356 1097 -770 51 -97 62 -140 36 -140
-4 0 -28 42 -54 93 -25 50 -68 124 -94 162 l-47 70 -53 -1 c-29 -1 -56 -5 -59
-8 -4 -3 3 -16 15 -29 67 -72 186 -257 222 -345 11 -28 11 -35 -2 -48 -13 -13
-18 -7 -43 51 -32 75 -143 247 -204 317 -40 45 -44 47 -82 42 -97 -14 -97 -9
5 -114 94 -98 155 -183 220 -303 39 -74 42 -87 25 -104 -9 -9 -21 9 -50 68
-37 75 -97 172 -143 228 -44 54 -133 144 -167 172 l-37 29 -76 -12 c-42 -6
-76 -14 -76 -17 1 -3 26 -22 57 -41 131 -82 299 -270 389 -436 33 -60 37 -75
28 -95 -11 -23 -14 -19 -52 57 -80 159 -189 292 -326 398 -138 106 -171 119
-246 96 l-25 -7 26 -11 c30 -12 59 -48 59 -73 0 -10 30 -36 75 -64 143 -89
304 -263 385 -417 28 -54 32 -70 24 -89 -10 -21 -13 -18 -48 51 -81 160 -220
317 -361 409 l-77 51 -28 -20 c-16 -11 -42 -20 -60 -20 -42 0 -90 47 -90 89 0
28 -4 31 -52 46 -87 25 -122 21 -160 -21 -18 -20 -46 -42 -63 -49 l-30 -13 50
-6 c250 -29 483 -142 648 -315 134 -140 227 -301 188 -326 -5 -3 -24 23 -41
57 -130 255 -361 442 -637 515 -129 34 -344 38 -467 10 -284 -67 -532 -254
-661 -501 -39 -74 -57 -89 -63 -50 -5 35 108 203 203 299 128 131 245 205 412
261 63 21 210 52 258 54 6 1 -3 8 -20 16 -16 9 -44 31 -62 50 -37 40 -63 42
-153 17 -58 -16 -60 -17 -60 -50 0 -23 -8 -42 -26 -60 -22 -22 -32 -25 -70
-20 -26 2 -50 12 -57 21 -11 16 -20 13 -87 -32 -147 -95 -283 -248 -358 -399
-37 -74 -48 -85 -58 -58 -9 22 12 67 77 165 91 139 251 296 361 354 28 15 38
28 43 54 4 24 16 39 42 55 32 18 34 22 17 28 -48 19 -89 9 -164 -40 -160 -105
-303 -263 -390 -432 -40 -78 -48 -88 -60 -74 -17 21 5 70 91 200 78 117 192
235 303 313 l79 56 -77 13 c-93 16 -93 16 -212 -109 -85 -91 -172 -216 -219
-316 -26 -56 -30 -61 -44 -47 -14 13 -12 21 13 72 63 130 190 297 295 389 l36
32 -50 7 c-27 4 -57 9 -66 11 -35 10 -168 -166 -248 -324 -42 -84 -61 -101
-61 -57 0 50 85 195 190 326 l51 64 -28 6 c-80 18 -87 15 -141 -68 -28 -43
-70 -118 -95 -167 -41 -83 -45 -88 -56 -67 -11 19 -6 34 38 116 133 248 315
442 544 579 161 96 366 170 542 195 82 12 304 12 392 1z m13 -1009 c230 -52
428 -182 571 -374 75 -100 105 -165 86 -184 -12 -12 -20 -2 -53 62 -106 206
-329 383 -566 447 -112 31 -355 33 -463 4 -248 -66 -457 -230 -577 -453 -38
-71 -42 -75 -52 -54 -13 29 15 84 96 192 138 183 336 311 558 359 116 25 288
25 400 1z m9 -172 c240 -60 439 -214 561 -436 20 -36 21 -45 10 -58 -12 -14
-18 -8 -48 49 -74 141 -220 278 -373 351 -209 99 -458 106 -672 20 -175 -71
-335 -218 -423 -388 -24 -47 -44 -54 -44 -17 0 36 84 162 160 240 221 226 526
314 829 239z m-637 -593 c14 -14 16 -16 234 -326 79 -113 154 -218 167 -233
l22 -29 49 69 c122 168 265 365 324 446 l64 87 134 0 c84 0 134 -4 134 -10 0
-11 -4 -16 -191 -280 -69 -96 -183 -257 -254 -358 l-128 -183 -136 3 -135 3
-116 165 c-64 91 -191 272 -283 402 -92 131 -167 242 -167 248 0 16 265 13
282 -4z"/>
<path d="M2990 3594 c-302 -46 -541 -151 -745 -328 -72 -63 -184 -176 -185
-187 0 -8 53 -19 89 -19 18 0 49 20 98 64 229 204 509 325 797 344 96 7 100 8
107 32 l6 25 4 -25 c4 -24 7 -25 99 -31 300 -20 593 -145 809 -345 l72 -67 62
10 62 9 -110 110 c-217 217 -478 351 -775 399 -86 13 -322 19 -390 9z"/>
<path d="M3036 3429 c-277 -24 -555 -143 -751 -322 l-59 -54 73 -6 73 -6 72
48 c99 67 202 117 321 156 92 30 272 65 337 65 21 0 26 6 32 38 8 51 8 92 -1
91 -5 -1 -48 -5 -97 -10z"/>
<path d="M3166 3430 c-1 -3 0 -30 2 -60 l4 -55 136 -17 c206 -25 389 -93 564
-206 75 -49 76 -50 139 -45 35 3 66 8 69 10 8 8 -89 89 -176 148 -151 102
-315 171 -487 205 -68 14 -247 28 -251 20z"/>
<path d="M3040 3264 c-14 -2 -58 -9 -98 -15 -84 -12 -221 -55 -307 -96 -78
-37 -195 -105 -195 -114 0 -3 42 -9 93 -13 92 -7 94 -6 192 33 55 22 118 43
140 47 l40 7 -40 12 c-36 11 -31 12 52 7 92 -5 92 -5 128 27 20 17 44 31 54
31 18 0 31 25 31 63 0 17 -25 20 -90 11z"/>
<path d="M3182 3234 c3 -33 7 -39 33 -46 17 -4 44 -19 60 -34 29 -25 33 -26
125 -21 87 5 91 4 50 -7 l-45 -12 44 -8 c25 -4 90 -25 147 -47 101 -39 102
-39 194 -32 l92 8 -45 33 c-142 101 -369 179 -580 197 l-78 7 3 -38z"/>
<path d="M2940 3083 c-14 -2 -70 -18 -125 -35 -116 -36 -111 -41 51 -52 l101
-7 6 33 c3 18 8 41 12 51 7 18 4 18 -45 10z"/>
<path d="M3329 3072 c6 -12 11 -35 11 -52 l0 -32 107 7 c170 12 175 17 58 53
-55 17 -120 34 -143 37 -42 7 -43 6 -33 -13z"/>
<path d="M3050 3061 c-7 -15 -7 -21 0 -21 12 0 25 28 17 36 -3 3 -10 -4 -17
-15z"/>
<path d="M3087 3056 c-4 -9 3 -16 21 -19 31 -6 42 -1 42 19 0 19 -56 19 -63 0z"/>
<path d="M3167 3055 c-4 -8 -2 -17 3 -20 15 -9 60 6 60 21 0 19 -56 18 -63 -1z"/>
<path d="M3250 3056 c0 -8 7 -16 15 -20 13 -4 14 -2 5 14 -13 23 -20 26 -20 6z"/>
<path d="M2760 2931 c0 -16 18 -22 47 -15 25 7 25 8 8 15 -28 11 -55 11 -55 0z"/>
<path d="M3505 2931 c-17 -7 -17 -8 8 -15 30 -7 51 0 42 15 -7 11 -22 11 -50
0z"/>
<path d="M1900 3997 c-14 -12 -40 -33 -58 -47 -29 -23 -31 -28 -18 -45 13 -18
15 -18 38 -3 24 16 25 16 99 -77 41 -52 79 -94 85 -94 6 -1 17 6 24 14 10 12
-1 31 -65 110 l-77 96 21 23 c16 17 18 25 9 34 -17 17 -29 15 -58 -11z"/>
<path d="M4388 3834 c-54 -57 -98 -108 -98 -113 0 -5 23 -28 51 -50 63 -50
106 -55 145 -16 19 19 25 34 22 58 -2 17 2 32 7 32 48 3 82 46 69 89 -6 21
-83 107 -94 105 -3 -1 -49 -48 -102 -105z m141 -30 c-15 -18 -39 -17 -63 1
-19 15 -19 15 5 41 l24 25 23 -26 c18 -21 20 -30 11 -41z m-90 -45 c44 -42 5
-98 -46 -67 -33 20 -34 27 -8 62 24 31 25 32 54 5z"/>
<path d="M1605 3700 c-55 -28 -85 -74 -86 -136 -1 -62 11 -94 50 -127 80 -67
211 -34 251 63 20 48 9 132 -23 166 -14 15 -28 26 -31 24 -20 -20 -106 -147
-106 -156 0 -7 7 -15 16 -18 17 -7 28 3 65 62 26 40 39 33 39 -20 0 -32 -7
-47 -34 -74 -55 -55 -136 -41 -170 29 -28 61 -1 122 67 150 19 9 40 25 47 36
10 19 8 21 -17 21 -15 0 -46 -9 -68 -20z"/>
<path d="M4601 3621 c-80 -26 -146 -52 -148 -58 -2 -5 3 -16 12 -23 12 -10 24
-11 53 -2 34 11 39 9 65 -16 45 -43 50 -58 32 -96 -13 -27 -14 -39 -5 -55 6
-12 14 -21 18 -21 4 0 39 64 79 143 54 108 69 147 61 160 -5 9 -12 17 -16 16
-4 0 -72 -22 -151 -48z m87 -58 c-12 -21 -23 -40 -25 -42 -4 -6 -43 31 -43 41
0 9 56 37 77 38 8 0 5 -13 -9 -37z"/>
<path d="M4834 3380 c-47 -74 -67 -96 -106 -117 -53 -29 -56 -34 -32 -54 13
-11 23 -9 64 14 43 24 58 27 149 27 103 0 114 5 92 39 -7 11 -25 12 -85 7 -42
-4 -76 -3 -76 2 0 5 18 34 40 65 44 61 45 64 26 90 -12 16 -19 9 -72 -73z"/>
<path d="M1390 3409 c-7 -11 -10 -22 -8 -23 2 -1 41 -21 88 -45 47 -24 89 -47
93 -51 4 -4 -47 -10 -115 -13 -111 -6 -125 -9 -141 -29 -18 -21 -18 -23 0 -36
10 -7 63 -36 118 -64 55 -28 106 -55 113 -61 9 -7 17 -5 27 9 8 10 15 21 15
24 0 3 -44 27 -97 55 -114 58 -110 62 54 64 98 1 103 2 119 26 9 14 15 27 13
29 -9 7 -256 136 -262 136 -3 0 -11 -9 -17 -21z"/>
<path d="M1285 3066 c-124 -55 -124 -231 -1 -287 53 -24 88 -24 137 1 140 72
98 285 -59 297 -27 2 -60 -3 -77 -11z m110 -52 c18 -8 41 -31 51 -49 17 -32
17 -38 4 -77 -21 -57 -74 -86 -130 -69 -46 14 -80 56 -80 101 0 42 15 67 53
90 39 24 59 25 102 4z"/>
<path d="M4957 2965 c-172 -131 -172 -130 65 -155 138 -14 140 -14 136 13 -3
19 -11 23 -58 29 -30 3 -83 6 -117 7 -34 1 -64 4 -66 9 -3 4 36 36 86 72 72
52 93 72 95 93 2 15 -1 27 -6 27 -5 0 -66 -43 -135 -95z"/>
<path d="M1156 3031 c-38 -22 -46 -48 -29 -91 13 -30 16 -32 25 -17 5 10 6 31
3 47 -5 23 -3 30 8 30 8 0 17 10 20 22 8 28 7 28 -27 9z"/>
<path d="M1173 2685 c-48 -48 -62 -96 -44 -156 21 -69 76 -109 152 -109 134 0
201 159 111 263 -8 9 -19 17 -24 17 -13 0 -9 -44 7 -85 30 -71 -19 -145 -97
-145 -32 0 -47 7 -74 34 -42 42 -44 78 -8 131 15 23 24 48 22 64 l-3 26 -42
-40z"/>
<path d="M5008 2692 c-122 -15 -128 -17 -128 -39 0 -28 10 -29 175 -8 66 8
121 15 123 15 1 0 2 11 2 25 0 29 8 29 -172 7z"/>
<path d="M5210 2548 c0 -14 7 -31 15 -38 11 -9 13 -16 5 -24 -5 -5 -10 -21
-10 -35 l1 -26 24 28 c33 37 31 57 -5 92 l-30 29 0 -26z"/>
<path d="M4897 2553 c-4 -3 -7 -39 -7 -80 0 -71 1 -73 24 -73 23 0 25 4 28 53
l3 52 35 0 35 0 3 -53 c3 -48 5 -53 25 -50 19 3 22 10 25 56 l3 53 37 -3 c39
-3 38 -1 41 -80 1 -22 6 -28 24 -28 22 0 23 3 21 53 -2 28 -3 64 -3 80 l-1 27
-143 0 c-79 0 -147 -3 -150 -7z"/>
<path d="M4820 2475 c0 -20 5 -25 25 -25 20 0 25 5 25 25 0 20 -5 25 -25 25
-20 0 -25 -5 -25 -25z"/>
<path d="M5148 2323 c-3 -31 10 -29 -163 -22 -90 3 -90 3 -90 -21 0 -24 4 -25
60 -27 33 -2 88 -5 123 -9 61 -5 62 -6 62 -35 0 -24 4 -29 25 -29 22 0 25 5
25 33 0 17 3 56 6 85 7 51 6 52 -19 52 -21 0 -26 -5 -29 -27z"/>
<path d="M1275 2193 c4 -16 10 -46 15 -68 5 -22 11 -52 15 -67 6 -30 12 -33
35 -18 12 7 12 18 3 62 -6 29 -9 55 -8 56 9 10 43 -12 58 -37 50 -84 -28 -191
-118 -161 -63 21 -95 95 -64 151 6 11 7 34 4 50 -6 25 -9 28 -22 18 -42 -36
-57 -133 -28 -189 8 -16 31 -41 51 -57 30 -22 46 -27 91 -27 61 1 94 20 131
74 64 95 -11 240 -126 240 -41 0 -42 -1 -37 -27z"/>
<path d="M4857 2028 c-4 -12 -3 -25 1 -29 4 -3 51 -17 105 -29 53 -13 94 -27
90 -30 -5 -4 -53 -19 -108 -35 -122 -33 -131 -38 -137 -69 -5 -23 -1 -26 86
-46 50 -12 110 -28 134 -36 60 -20 72 -18 72 11 0 26 6 23 -134 59 -91 24 -94
21 59 61 55 15 106 34 113 43 29 38 17 46 -120 81 -73 19 -138 36 -144 38 -6
2 -14 -6 -17 -19z"/>
<path d="M1344 1824 c-114 -48 -131 -58 -127 -75 7 -26 19 -32 40 -20 28 16
164 71 174 71 6 0 -24 -43 -66 -95 -41 -52 -75 -101 -75 -109 0 -23 11 -46 23
-46 6 0 68 24 139 53 96 39 128 56 128 70 0 31 -26 29 -114 -7 -47 -20 -91
-36 -96 -36 -6 0 24 45 66 100 71 92 76 102 66 125 -6 14 -15 25 -19 24 -5 0
-67 -25 -139 -55z"/>
<path d="M4768 1745 c-10 -22 -8 -29 15 -53 33 -34 33 -41 3 -94 -23 -40 -27
-43 -62 -40 -38 2 -64 -11 -64 -33 0 -14 45 -21 212 -31 98 -6 107 -5 116 13
9 15 6 25 -11 44 -13 13 -60 68 -106 122 -45 53 -85 97 -87 97 -2 0 -10 -11
-16 -25z m147 -203 c-2 -2 -25 -1 -49 2 l-46 7 16 31 16 30 34 -33 c18 -18 32
-35 29 -37z"/>
<path d="M1495 1546 c-37 -16 -82 -68 -91 -102 -10 -39 2 -100 26 -134 69 -97
224 -82 272 27 58 131 -76 266 -207 209z m108 -47 c85 -44 83 -150 -4 -194
-55 -29 -124 3 -144 66 -27 85 70 168 148 128z"/>
<path d="M4611 1451 c-10 -17 -1 -26 78 -83 49 -34 88 -64 86 -66 -2 -2 -51
10 -108 27 -123 37 -124 37 -132 11 -4 -14 12 -45 60 -111 36 -50 64 -93 63
-95 -2 -2 -41 24 -87 56 -46 33 -90 60 -97 60 -13 0 -15 -4 -18 -30 -1 -5 53
-48 118 -94 l119 -85 19 24 c10 13 18 28 18 35 0 6 -30 53 -66 103 -47 66 -61
93 -51 95 9 2 61 -11 118 -29 l102 -31 18 23 c10 13 19 29 19 34 0 9 -215 165
-239 173 -5 2 -14 -6 -20 -17z"/>
<path d="M1266 1395 c-13 -36 7 -75 40 -75 22 0 16 27 -7 33 -30 8 -14 27 22
27 43 0 32 24 -13 28 -26 2 -37 -2 -42 -13z"/>
<path d="M1367 1353 c-10 -9 -8 -65 2 -81 10 -16 81 -34 81 -20 0 5 -14 17
-30 26 -17 10 -28 23 -25 30 6 16 -19 55 -28 45z"/>
<path d="M1711 1235 c-51 -41 -97 -75 -101 -75 -4 0 -13 7 -20 15 -14 17 -20
18 -39 6 -12 -8 -10 -16 12 -48 14 -21 38 -51 51 -68 24 -28 27 -29 42 -13 15
15 15 18 1 38 -15 22 -13 25 84 102 96 77 99 81 83 99 -9 11 -18 19 -18 19 -1
0 -43 -34 -95 -75z"/>
<path d="M2118 934 l-15 -49 -58 -5 -59 -5 45 -30 c24 -16 46 -30 48 -32 2 -1
-4 -23 -13 -49 -9 -26 -15 -49 -13 -51 2 -1 22 11 44 27 l41 31 44 -30 c23
-16 44 -28 46 -27 1 2 -5 19 -13 39 -22 53 -19 61 27 93 l42 29 -59 5 -58 5
-17 49 -16 49 -16 -49z"/>
<path d="M4191 925 l-11 -44 -58 -3 -57 -3 47 -34 46 -33 -14 -40 c-21 -60
-18 -62 30 -27 l45 32 39 -32 c22 -17 42 -31 45 -31 3 0 -3 22 -14 50 -21 54
-22 51 40 95 l35 25 -61 0 -60 0 -13 45 c-7 25 -16 45 -20 45 -4 0 -13 -20
-19 -45z"/>
<path d="M3753 750 c-22 -9 -23 -14 -23 -124 0 -63 -4 -117 -8 -120 -8 -5
-117 129 -128 158 -8 21 -30 27 -63 15 -26 -9 -29 -13 -21 -37 5 -15 25 -80
45 -145 34 -110 38 -117 58 -111 12 3 23 8 25 9 2 2 -11 45 -27 96 -17 52 -31
100 -31 108 0 8 32 -29 71 -82 39 -53 73 -97 77 -97 30 1 37 23 42 137 l5 118
34 -108 c31 -97 36 -107 55 -101 12 4 23 8 25 10 2 2 -10 47 -27 101 -17 54
-37 117 -44 141 -13 43 -24 48 -65 32z"/>
<path d="M2534 723 c3 -16 10 -84 17 -153 8 -94 15 -128 27 -138 9 -7 19 -11
23 -10 14 5 197 256 192 262 -4 3 -16 6 -28 6 -16 0 -40 -25 -91 -97 l-69 -98
-7 50 c-3 28 -7 75 -7 105 -2 81 -9 100 -38 100 -21 0 -24 -3 -19 -27z"/>
<path d="M3293 653 c-52 -4 -62 -13 -45 -39 4 -7 18 -14 32 -15 24 -4 25 -7
36 -124 7 -66 12 -121 13 -122 1 -2 13 -3 27 -3 24 0 26 3 21 28 -3 16 -9 75
-13 130 l-7 102 27 0 c21 0 26 5 26 25 0 27 6 26 -117 18z"/>
<path d="M2975 608 c-11 -23 -43 -86 -71 -140 -28 -53 -49 -100 -46 -103 3 -3
16 -5 29 -5 17 0 28 10 40 35 16 32 20 35 62 35 57 0 72 -10 87 -52 8 -25 17
-34 37 -36 15 -2 27 -1 27 2 0 2 -22 71 -50 153 -27 81 -50 149 -50 151 0 1
-10 2 -22 2 -17 0 -28 -11 -43 -42z m54 -75 c15 -53 15 -53 -24 -53 l-34 0 17
45 c9 25 20 45 24 45 4 0 12 -17 17 -37z"/>
</g>
</svg>
